<svg xmlns="http://www.w3.org/2000/svg" viewBox="0 0 797.2 352.8"><defs><style>.cls-1{fill:#4b4f4f;}</style></defs><title>bs-logo-dark</title><g id="Layer_2" data-name="Layer 2"><g id="Layer_1-2" data-name="Layer 1"><path class="cls-1" d="M39.9,320.8c-11.3,0-24.5-2.3-27.8-3.6V289.4H27.4v14a44.48,44.48,0,0,0,14.5,2.5c12.2,0,18-4,18-11.3,0-7.5-6.5-10.9-14.9-13.8l-12.2-4.4c-12.9-4.6-20.6-12.2-20.6-28,0-16.5,14.7-29.6,38.7-29.6,9.4,0,20.2,1.1,25.6,2.9V249H62.3V234.8a41.53,41.53,0,0,0-11.8-1.6c-10.9,0-16.2,4.2-16.2,10.9,0,6.2,3.6,9.1,12.3,12l12,4c13.8,4.6,23.1,12.9,23.1,28.2,0,20.8-17.3,32.5-41.8,32.5Z"/><path class="cls-1" d="M134.6,234.7a50.73,50.73,0,0,0-7.1.4v69.2a33.57,33.57,0,0,0,9.4,1.1c16,0,24.2-9.8,24.2-34.5,0-25.6-12.7-36.2-26.5-36.2Zm5.4,85.4a70.22,70.22,0,0,1-12-1.1v21.6h14v12.2H90.8V340.6h11.8V232.4H90.1V220.2h35.1c2.7,0,10.9-.9,17.3-.9,28.9,0,44.7,12,44.7,47.8-.1,32.3-18.8,53-47.2,53Z"/><path class="cls-1" d="M241.1,233.6c-8.7,0-15.5,8.9-15.5,23.3h30c0-16.5-5.8-23.3-14.5-23.3Zm-14.9,36.9c0,16.9,11.1,32.5,32.2,32.5a92.52,92.52,0,0,0,19.3-1.8v14.2c-8,3.3-18,4.9-28.9,4.9-31.1,0-48.5-17.3-48.5-50.5,0-30.5,16.7-50.5,42.7-50.5,28,0,38.9,15.1,38.9,51.2H226.2Z"/><path class="cls-1" d="M340.1,320.3c-28,0-44.9-15.6-44.9-49.3,0-31.6,18.7-51.8,48.7-51.8,8.2,0,17.3.6,23.3,2V249H352.1V235a28.77,28.77,0,0,0-9.1-1.1c-13.1,0-22.4,10.5-22.4,34,0,22.9,12.2,35.4,29.1,35.4a76.75,76.75,0,0,0,17.8-2v14c-6.9,3.2-15.9,5-27.4,5Z"/><path class="cls-1" d="M402.8,210a15.66,15.66,0,0,1-15.6-15.8,15.49,15.49,0,0,1,15.6-15.6,15.84,15.84,0,0,1,16,15.6,16,16,0,0,1-16,15.8ZM376.6,319.4V307.2h14.2V232.3H376.6V220.1h39.6v87h12.9v12.2H376.6Z"/><path class="cls-1" d="M489.8,276.3c-20.5,0-26,7.1-26,16.9,0,8.5,6.4,13.8,16.9,13.8a42.22,42.22,0,0,0,9.1-.7v-30Zm4.2,43.1c-4.7,0-9.3.9-16.7.9-20,0-38.7-4.4-38.7-26,0-20.5,16.7-31.3,51.1-31.3,0-13.4-2-20.2-6.2-24.4-3.5-3.6-8.4-5.4-14.9-5.4a37.78,37.78,0,0,0-8,.6v15.4H445.3V221.4a200.58,200.58,0,0,1,30.9-2.2c28.9,0,38.7,13.4,38.5,34.2l-.4,53.8h12.2v12.2H494Z"/><polygon class="cls-1" points="532.7 319.4 532.7 307.2 547.3 307.2 547.3 195.5 532.7 195.5 532.7 183.5 572.7 183.5 572.7 307.2 586.5 307.2 586.5 319.4 532.7 319.4"/><path class="cls-1" d="M620.7,210a15.66,15.66,0,0,1-15.6-15.8,15.49,15.49,0,0,1,15.6-15.6,15.77,15.77,0,0,1,16,15.6,16,16,0,0,1-16,15.8ZM594.5,319.4V307.2h14.2V232.3H594.5V220.1h39.6v87H647v12.2H594.5Z"/><path class="cls-1" d="M684.6,320.8c-11.2,0-24.5-2.3-27.8-3.6V289.4H672v14a45.13,45.13,0,0,0,14.6,2.5c12.2,0,18-4,18-11.3,0-7.5-6.5-10.9-14.9-13.8l-12.2-4.4c-12.9-4.6-20.6-12.2-20.6-28,0-16.5,14.7-29.6,38.7-29.6,9.5,0,20.2,1.1,25.6,2.9V249H707V234.8a41.53,41.53,0,0,0-11.8-1.6c-10.9,0-16.2,4.2-16.2,10.9,0,6.2,3.6,9.1,12.4,12l12,4c13.8,4.6,23.1,12.9,23.1,28.2-.1,20.8-17.3,32.5-41.9,32.5Z"/><path class="cls-1" d="M775.8,320.3c-9.8,0-17.6-1.5-22.9-6.7-6.4-6.4-6.7-13.4-6.7-26.5l.2-52.9h-14v-14h14.2l-.4-19.6,24.9-2.2v21.8H794v14.2H771l-.2,44.7c0,6.2-.9,15.8,3.8,20.5a16.74,16.74,0,0,0,10.9,4.4,24.38,24.38,0,0,0,9.6-1.6v14.4a51.21,51.21,0,0,1-19.3,3.5Z"/><path class="cls-1" d="M35.1,79.3v52.6a73.7,73.7,0,0,0,12.3.7c15.2,0,26.4-7.8,26.4-25.6,0-19.5-14.4-27.7-38.7-27.7Zm6.8-60.5c-2.1,0-4.6.2-6.8.2V67c23.2,0,33-8.4,33-24.9S59.6,18.8,41.9,18.8ZM50.1,144c-6,0-11.6-.2-18.2-.2H.4V132.4H15V19H0V7.6H29.6c4,0,9.9-.2,13.3-.2,30.9,0,45.7,8.4,45.7,30.9,0,20.5-14.2,31.9-29,33.8C80.1,73.4,95.1,83.9,95.1,104c0,26.8-19.4,40-45,40Z"/><path class="cls-1" d="M170.4,70.2V66c0-8.2-5.7-14.1-13.3-14.1a35.48,35.48,0,0,0-6.5.4v80.5h15.2v11H116.5v-11h14.8V51.6H116.5v-11h34.2c4.6,0,6.8-.4,11.8-.4,15.6,0,20.7,4.2,20.7,16.7V70.2Z"/><path class="cls-1" d="M244.4,52.4c-17.3,0-24.5,17.8-24.5,40.1,0,19.4,5.3,39.8,25.4,39.8,18.4,0,24.1-20.9,24.1-41.9.1-18.7-7.1-38-25-38Zm0,93.5c-31.5,0-45.3-23.1-45.3-53s17.7-54.3,45.7-54.3c31.1,0,45.4,21.8,45.4,50.7,0,30.1-14.8,56.6-45.8,56.6Z"/><path class="cls-1" d="M436.3,143.8V82c0-10-1.9-16.1-6.8-21.1-6.3-6.2-16.7-7.4-24.7-7.4a56.8,56.8,0,0,0-9.9.6,36.77,36.77,0,0,1,4.9,18.6v60.2h14v11H380.4V82c0-11.9-1.3-16.1-6.8-21.6s-16.1-8.1-26-8.1c-.8,0-2.5.2-3.4.2V133h15.2v11H310.1V133h14.8V51.6H310.1v-11h30.7c5.3,0,10.8-.4,16.1-.4,12,0,20.5,1.3,29.4,5.7A87.11,87.11,0,0,1,417.8,40c11.6,0,22.7,3.8,29,10.2,6.8,7,8.7,12.5,8.7,22.6v60h13.9v11H436.3Z"/><path class="cls-1" d="M526.8,52.2c-12.5,0-19.4,11.9-19.4,24.5h37.2c.1-16-6.6-24.5-17.8-24.5Zm-19.7,36c0,27.7,12.7,42.9,34.2,42.9,9.7,0,16.1-1.5,21.4-3.6v12.3c-7.4,3-17.3,4.9-28.3,4.9-27.3,0-47.8-17.3-47.8-52.2,0-28.5,12.9-52.8,42.5-52.8,23.7,0,36.2,13.3,36.2,48.4H507.1Z"/><polygon class="cls-1" points="583.2 143.8 583.2 132.9 598 132.9 598 12.9 583.2 12.9 583.2 1.9 617.3 1.9 617.3 132.9 632.5 132.9 632.5 143.8 583.2 143.8"/><path class="cls-1" d="M672,27.3A13.65,13.65,0,1,1,672,0a13.83,13.83,0,0,1,13.9,13.7A13.81,13.81,0,0,1,672,27.3ZM648.6,143.8v-11h14.8V51.6H648.6v-11h34.2v92.3H698v11H648.6Z"/><path class="cls-1" d="M765.2,97.4c-21.5,0-31.5,5.7-31.5,19.7,0,11,9.5,15.8,23.7,15.8a32.22,32.22,0,0,0,7.8-.8V97.4Zm4.5,46.4c-4.4,0-11,.8-17.7.8-28.5,0-38.7-9.7-38.7-26.7,0-27.1,29.8-32.4,51.4-31.9,0-15.2-1.5-22.4-6.5-27.3-4.2-4.2-11.2-6.3-19.6-6.3a36.82,36.82,0,0,0-6.6.6V70H719.5V42.5A137.49,137.49,0,0,1,746,40c24.3,0,37.8,10.8,37.6,31.5l-.4,61.3h14v11Z"/></g></g></svg>