<svg width="413" height="472" viewBox="0 0 413 472" fill="none" xmlns="http://www.w3.org/2000/svg">
<g clip-path="url(#clip0_976_405)">
<path d="M199.708 180.841C197.601 183.209 189.407 189.259 185.751 190.719C108.711 168.387 107.629 66.4952 116.718 18.3408C128.438 31.8161 144.908 37.082 151.677 38.0305C228.136 101.993 202.341 177.882 199.708 180.841Z" fill="#DAEAB4"/>
<path d="M151.642 47.27C123.168 43.5762 116.148 27.8751 116.197 20.4863C98.0259 150.175 154.643 187.716 185.223 190.275C213.959 137.206 174.809 72.8264 151.642 47.27Z" fill="#7B930C"/>
<path d="M154.871 83.5066C112.637 48.8649 138.304 94.9524 138.304 94.9524C143.102 100.973 139.882 103.142 136.882 105.107C125.736 108.601 127.071 112.797 129.815 115.95C136.972 122.135 138.416 124.928 137.873 127.063C135.554 129.747 136.478 137.573 137.647 139.234C153.18 147.658 152.506 156.956 153.505 161.074C164.522 176.533 175.955 156.165 176.517 149.488C168.141 140.375 168.559 129.32 173.763 126.915C179.547 98.1618 165.256 91.8308 154.871 83.5066Z" fill="#A7C714"/>
<g filter="url(#filter0_d_976_405)">
<path d="M207.301 171.439C193.873 92.2757 266.048 37.2714 305.523 22.9501L313.956 22.9508C311.243 192.539 224.471 176.197 220.406 179.172C217.153 181.551 210.314 175.008 207.301 171.439Z" fill="#DAEAB4"/>
</g>
<path d="M314.455 23.0542C277.181 32.7889 207.305 90.1631 220.899 180.479C253.435 186.116 314.455 147.56 314.455 23.0542Z" fill="#7B930C"/>
<path d="M270.047 76.3992C316.74 47.9529 299.043 75.6567 285.87 91.4254C280.277 96.7224 285.552 97.831 288.254 100.193C298.82 105.2 295.143 111.935 291.984 114.677C284.028 119.808 282.523 125.471 282.765 127.661C284.691 130.64 282.394 134.351 281.004 135.834C264.43 142.021 262.187 149.466 260.625 153.406C247.552 167.187 240.001 159.233 240.372 152.543C249.943 144.68 245.586 123.49 240.76 120.386C239.019 91.1086 258.592 83.2018 270.047 76.3992Z" fill="#A7C714"/>
<g filter="url(#filter1_d_976_405)">
<path d="M185.647 186.575C199.058 107.412 123.561 58.9785 84.1371 44.6572L77.826 56.0629C80.5357 225.651 168.499 191.333 172.56 194.308C175.808 196.687 182.638 190.144 185.647 186.575Z" fill="#DAEAB4"/>
</g>
<g filter="url(#filter2_d_976_405)">
<path d="M251.874 198.278C246.332 118.195 325.631 77.2872 365.973 66.8439L371.097 78.8053C351.91 247.326 268.351 204.671 264.05 207.238C260.609 209.293 254.499 202.121 251.874 198.278Z" fill="#DAEAB4"/>
</g>
<path d="M77.8578 54.5097C115.084 64.2443 186.142 106.293 172.566 196.608C140.072 202.245 75.6394 181.718 77.8578 54.5097Z" fill="#7B930C"/>
<path d="M371.217 77.2561C333.493 83.347 259.2 118.329 263.82 209.527C295.372 218.278 361.024 204.074 371.217 77.2561Z" fill="#7B930C"/>
<path d="M123.478 92.534C76.8458 64.0877 94.5196 91.7914 107.675 107.56C113.262 112.857 107.993 113.966 105.295 116.328C94.7422 121.335 98.4145 128.07 101.57 130.812C109.515 135.943 111.018 141.606 110.777 143.795C108.853 146.775 111.147 150.485 112.535 151.968C129.088 158.156 131.328 165.601 132.888 169.541C145.944 183.322 153.485 175.368 153.115 168.678C143.556 160.815 147.908 139.624 152.727 136.521C154.466 107.243 134.918 99.3365 123.478 92.534Z" fill="#A7C714"/>
<g filter="url(#filter3_d_976_405)">
<path d="M170.205 194.74C168.758 114.462 71.3169 80.4894 29.9252 73.6991L25.8301 86.0745C59.8277 252.242 153.581 210.144 158.121 212.317C161.753 214.056 174.966 206.458 170.205 194.74Z" fill="#DAEAB4"/>
</g>
<path d="M322.448 110.691C371.286 86.8861 351.128 112.75 336.597 127.173C330.562 131.905 335.659 133.517 338.095 136.129C348.032 142.132 343.749 148.48 340.365 150.904C332.016 155.243 329.979 160.734 330.005 162.936C331.616 166.087 328.987 169.559 327.472 170.9C310.517 175.459 307.579 182.652 305.654 186.423C291.415 198.876 284.739 190.231 285.756 183.609C295.965 176.707 293.729 155.197 289.27 151.642C290.402 122.336 310.484 116.356 322.448 110.691Z" fill="#A7C714"/>
<path d="M25.5749 85.0217C63.9587 87.7106 166.861 125.192 170.206 216.461C125.895 233.305 46.8986 210.449 25.5749 85.0217Z" fill="#7B930C"/>
<path d="M25.5749 85.0217C63.9587 87.7106 166.861 125.192 170.206 216.461C125.895 233.305 46.8986 210.449 25.5749 85.0217Z" fill="#7B930C"/>
<path d="M77.4354 113.962C26.3503 94.6213 48.8386 118.583 64.6811 131.649C71.1501 135.823 66.1775 137.886 63.9618 140.706C54.516 147.576 59.3695 153.517 62.977 155.628C71.7335 159.203 74.2573 164.491 74.4247 166.687C73.0839 169.971 76.0249 173.194 77.6629 174.395C95.0737 177.417 98.6508 184.32 100.912 187.904C116.289 199.035 122.231 189.825 120.631 183.318C109.784 177.357 110.146 155.727 114.309 151.787C110.608 122.692 89.9354 118.533 77.4354 113.962Z" fill="#A7C714"/>
<path d="M40.6777 189.035C112.909 279.682 183.181 272.645 209.289 257.796C184.063 211.234 141.506 195.278 123.38 193.12C94.0143 184.668 56.0094 186.875 40.6777 189.035Z" fill="#DAEAB4"/>
<path d="M47.5289 195.646C120.005 286.872 186.974 281.396 213.069 266.532C187.727 219.698 145.104 203.578 126.96 201.371C97.5547 192.817 62.8674 193.509 47.5289 195.646Z" fill="#7B930C"/>
<path d="M383.215 174.916C321.813 274.648 250.766 276.164 222.918 264.455C242.591 214.676 283.216 193.48 301.07 189.104C329.406 177.044 367.64 174.62 383.215 174.916Z" fill="#DAEAB4"/>
<path d="M376.993 183.001C315.592 282.732 248.055 285.291 220.207 273.583C239.88 223.804 280.505 202.608 298.359 198.232C326.695 186.171 361.418 182.705 376.993 183.001Z" fill="#7B930C"/>
<path d="M314.665 241.816C339.662 223.341 349.454 204.633 347.184 199.762C345.094 197.415 311.139 202.792 308.471 216.922C283.064 223.869 273.27 239.918 273.676 240.182C230.971 259.207 236.796 260.173 235.128 265.79C262.993 271.009 294.051 252.961 314.665 241.816Z" fill="#A7C714"/>
<path d="M116.348 246.675C89.5629 231.452 77.7126 214.201 79.3697 209.139C81.1487 206.582 115.199 207.855 119.497 221.444C145.32 225.275 156.858 239.909 156.489 240.217C200.765 253.885 195.147 255.525 197.454 260.855C170.65 269.288 137.952 255.203 116.348 246.675Z" fill="#A7C714"/>
<path d="M301.821 147.36C246.977 165.322 214.312 231.381 202 271.398C334.792 271.398 347.229 146.185 350.888 130.442C353.799 117.913 299.15 148.169 301.821 147.36Z" fill="#DAEAB4"/>
<path d="M130.849 147.221C185.325 165.059 217.77 230.658 230 270.398C98.0995 270.398 85.7452 146.055 82.1116 130.421C79.2199 117.979 133.502 148.025 130.849 147.221Z" fill="#DAEAB4"/>
<path d="M351 136.685C351 233.482 229.5 290 204.272 270.759C192.21 259.392 269.623 166.744 281.391 162.553C337.655 142.514 349.529 135.349 351 129.398V136.685Z" fill="#7B930C"/>
<g filter="url(#filter4_d_976_405)">
<path d="M224.862 183.373C276.619 125.07 239.347 46.3536 214.242 14.2833L203.178 20.4315C118.195 161.501 208.292 178.473 210.106 183.011C211.558 186.642 220.548 184.765 224.862 183.373Z" fill="#DAEAB4"/>
</g>
<path d="M83 136.634C83 232.749 194 284 227.745 269.764C239.644 258.476 163.277 166.481 151.668 162.319C96.1643 142.422 84.4511 135.307 83 129.398V136.634Z" fill="#7B930C"/>
<path d="M203.272 19.9005C228.925 47.0627 265.825 118.238 208.197 185.641C178.535 173.573 136.024 123.53 203.272 19.9005Z" fill="#7B930C"/>
<path d="M309.387 215.43C329.864 189.065 327.183 173.93 323.282 169.657C320.357 167.9 314.019 175.516 311.216 179.544C289.569 171.928 281.089 178.3 281.597 178.446C273.909 180.75 270.749 201.881 270.627 215.43C235.89 242.893 239.668 246.922 243.203 249.485C252.564 264.425 291.226 233.007 309.387 215.43Z" fill="#A7C714"/>
<path d="M221.29 74.6748C197.513 27.2643 199.318 54.4502 202.044 74.2031C203.921 81.4388 197.515 84.3631 194.078 84.9208C182.812 83.6175 182.373 91.0532 183.561 94.934C187.466 103.246 185.792 108.683 184.467 110.363C181.35 111.827 181.332 116.063 181.712 117.998C192.163 131.607 193.294 143.104 192.553 147.151C196.218 165.215 203.406 158.33 206.541 152.63C202.712 141.238 212.885 138.234 218.451 138.157C234.94 114.938 227.214 86.1609 221.29 74.6748Z" fill="#A7C714"/>
<path d="M123.613 214.882C103.136 188.831 105.817 173.876 109.718 169.654C112.643 167.918 118.981 175.444 121.784 179.424C143.431 171.898 151.911 178.194 151.403 178.338C159.091 180.615 162.251 201.495 162.373 214.882C197.11 242.019 193.332 245.999 189.797 248.531C180.436 263.294 141.774 232.249 123.613 214.882Z" fill="#A7C714"/>
<g filter="url(#filter5_d_976_405)">
<path d="M231.658 269.356C281.368 209.299 241.397 131.918 215.198 100.735L204.354 107.262C124.298 251.185 214.928 265.032 216.899 269.505C218.475 273.083 227.395 270.897 231.658 269.356Z" fill="#DAEAB4"/>
</g>
<path d="M205.133 105.971C231.71 132.23 271.049 202.087 215.785 271.442C180 258 141.509 211.863 205.133 105.971Z" fill="#7B930C"/>
<path d="M225.035 160.089C199.633 113.529 202.377 140.636 205.784 160.283C207.91 167.449 201.609 170.593 198.193 171.27C186.889 170.357 186.707 177.803 188.029 181.64C192.219 189.813 190.734 195.304 189.468 197.029C186.403 198.6 186.532 202.834 186.979 204.755C197.894 217.994 199.421 229.445 198.82 233.516C203.108 251.442 210.053 244.313 212.99 238.507C208.769 227.254 218.833 223.901 224.392 223.631C240.068 199.856 231.353 171.363 225.035 160.089Z" fill="#A7C714"/>
<path d="M127.71 461.398L101 285.398H322L296.753 461.398H127.71Z" fill="#D26600"/>
<g filter="url(#filter6_f_976_405)">
<path d="M296.587 461.398H164.999C152.459 325.289 261.108 308.618 317 317.296L296.587 461.398Z" fill="#DE7C16"/>
</g>
<rect x="79" y="253.398" width="262" height="46" rx="23" fill="#DC7D16"/>
</g>
<defs>
<filter id="filter0_d_976_405" x="201.66" y="22.9502" width="116.297" height="164.73" filterUnits="userSpaceOnUse" color-interpolation-filters="sRGB">
<feFlood flood-opacity="0" result="BackgroundImageFix"/>
<feColorMatrix in="SourceAlpha" type="matrix" values="0 0 0 0 0 0 0 0 0 0 0 0 0 0 0 0 0 0 127 0" result="hardAlpha"/>
<feOffset dy="4"/>
<feGaussianBlur stdDeviation="2"/>
<feComposite in2="hardAlpha" operator="out"/>
<feColorMatrix type="matrix" values="0 0 0 0 0 0 0 0 0 0 0 0 0 0 0 0 0 0 0.25 0"/>
<feBlend mode="normal" in2="BackgroundImageFix" result="effect1_dropShadow_976_405"/>
<feBlend mode="normal" in="SourceGraphic" in2="effect1_dropShadow_976_405" result="shape"/>
</filter>
<filter id="filter1_d_976_405" x="73.8262" y="44.6572" width="117.396" height="158.654" filterUnits="userSpaceOnUse" color-interpolation-filters="sRGB">
<feFlood flood-opacity="0" result="BackgroundImageFix"/>
<feColorMatrix in="SourceAlpha" type="matrix" values="0 0 0 0 0 0 0 0 0 0 0 0 0 0 0 0 0 0 127 0" result="hardAlpha"/>
<feOffset dy="4"/>
<feGaussianBlur stdDeviation="2"/>
<feComposite in2="hardAlpha" operator="out"/>
<feColorMatrix type="matrix" values="0 0 0 0 0 0 0 0 0 0 0 0 0 0 0 0 0 0 0.25 0"/>
<feBlend mode="normal" in2="BackgroundImageFix" result="effect1_dropShadow_976_405"/>
<feBlend mode="normal" in="SourceGraphic" in2="effect1_dropShadow_976_405" result="shape"/>
</filter>
<filter id="filter2_d_976_405" x="247.598" y="66.8438" width="127.5" height="151.421" filterUnits="userSpaceOnUse" color-interpolation-filters="sRGB">
<feFlood flood-opacity="0" result="BackgroundImageFix"/>
<feColorMatrix in="SourceAlpha" type="matrix" values="0 0 0 0 0 0 0 0 0 0 0 0 0 0 0 0 0 0 127 0" result="hardAlpha"/>
<feOffset dy="4"/>
<feGaussianBlur stdDeviation="2"/>
<feComposite in2="hardAlpha" operator="out"/>
<feColorMatrix type="matrix" values="0 0 0 0 0 0 0 0 0 0 0 0 0 0 0 0 0 0 0.25 0"/>
<feBlend mode="normal" in2="BackgroundImageFix" result="effect1_dropShadow_976_405"/>
<feBlend mode="normal" in="SourceGraphic" in2="effect1_dropShadow_976_405" result="shape"/>
</filter>
<filter id="filter3_d_976_405" x="21.8301" y="73.6992" width="153.396" height="149.859" filterUnits="userSpaceOnUse" color-interpolation-filters="sRGB">
<feFlood flood-opacity="0" result="BackgroundImageFix"/>
<feColorMatrix in="SourceAlpha" type="matrix" values="0 0 0 0 0 0 0 0 0 0 0 0 0 0 0 0 0 0 127 0" result="hardAlpha"/>
<feOffset dy="4"/>
<feGaussianBlur stdDeviation="2"/>
<feComposite in2="hardAlpha" operator="out"/>
<feColorMatrix type="matrix" values="0 0 0 0 0 0 0 0 0 0 0 0 0 0 0 0 0 0 0.25 0"/>
<feBlend mode="normal" in2="BackgroundImageFix" result="effect1_dropShadow_976_405"/>
<feBlend mode="normal" in="SourceGraphic" in2="effect1_dropShadow_976_405" result="shape"/>
</filter>
<filter id="filter4_d_976_405" x="162.748" y="14.2832" width="92.127" height="178.833" filterUnits="userSpaceOnUse" color-interpolation-filters="sRGB">
<feFlood flood-opacity="0" result="BackgroundImageFix"/>
<feColorMatrix in="SourceAlpha" type="matrix" values="0 0 0 0 0 0 0 0 0 0 0 0 0 0 0 0 0 0 127 0" result="hardAlpha"/>
<feOffset dy="4"/>
<feGaussianBlur stdDeviation="2"/>
<feComposite in2="hardAlpha" operator="out"/>
<feColorMatrix type="matrix" values="0 0 0 0 0 0 0 0 0 0 0 0 0 0 0 0 0 0 0.25 0"/>
<feBlend mode="normal" in2="BackgroundImageFix" result="effect1_dropShadow_976_405"/>
<feBlend mode="normal" in="SourceGraphic" in2="effect1_dropShadow_976_405" result="shape"/>
</filter>
<filter id="filter5_d_976_405" x="167.379" y="100.735" width="91.9551" height="178.707" filterUnits="userSpaceOnUse" color-interpolation-filters="sRGB">
<feFlood flood-opacity="0" result="BackgroundImageFix"/>
<feColorMatrix in="SourceAlpha" type="matrix" values="0 0 0 0 0 0 0 0 0 0 0 0 0 0 0 0 0 0 127 0" result="hardAlpha"/>
<feOffset dy="4"/>
<feGaussianBlur stdDeviation="2"/>
<feComposite in2="hardAlpha" operator="out"/>
<feColorMatrix type="matrix" values="0 0 0 0 0 0 0 0 0 0 0 0 0 0 0 0 0 0 0.25 0"/>
<feBlend mode="normal" in2="BackgroundImageFix" result="effect1_dropShadow_976_405"/>
<feBlend mode="normal" in="SourceGraphic" in2="effect1_dropShadow_976_405" result="shape"/>
</filter>
<filter id="filter6_f_976_405" x="155" y="306.398" width="171" height="164" filterUnits="userSpaceOnUse" color-interpolation-filters="sRGB">
<feFlood flood-opacity="0" result="BackgroundImageFix"/>
<feBlend mode="normal" in="SourceGraphic" in2="BackgroundImageFix" result="shape"/>
<feGaussianBlur stdDeviation="4.5" result="effect1_foregroundBlur_976_405"/>
</filter>
<clipPath id="clip0_976_405">
<rect width="413" height="472" fill="white"/>
</clipPath>
</defs>
</svg>
