<svg width="150" height="120" viewBox="0 0 508 409" version="1.1" xmlns="http://www.w3.org/2000/svg" xmlns:xlink="http://www.w3.org/1999/xlink"><title>ADVISOR - Logo Software Solutions</title><defs><path id="path-1" d="M48.226 24.94H.06V.595h48.166V24.94z"/><path id="path-3" d="M.207 24.94H148.13V.595H.207V24.94z"/><path id="path-5" d="M.228 24.94h98.384V.595H.228V24.94z"/></defs><g id="Page-1" stroke="none" stroke-width="1" fill="none" fill-rule="evenodd"><g id="ADVISOR---Logo-Software-Solutions"><g id="Group-4" transform="translate(0 384)"><mask id="mask-2" fill="#fff"><use xlink:href="#path-1"/></mask><path d="M16.562 16.61v1.713c0 2.531-.717 4.276-2.153 5.235C12.975 24.52 10.737 25 7.698 25c-1.946 0-4.354-.195-7.224-.584v-2.955c2.87.609 5.351.913 7.442.913 1.679 0 2.96-.189 3.848-.566.888-.378 1.333-1.136 1.333-2.28v-3.065c0-.997-.286-1.707-.857-2.133-.573-.426-1.601-.64-3.083-.64H6.384c-2.383 0-4.043-.479-4.979-1.44C.468 11.29 0 9.873 0 8.001V6.103c0-1.872.663-3.258 1.988-4.158 1.326-.9 3.764-1.35 7.315-1.35 1.701 0 3.733.134 6.092.401v2.662c-2.699-.412-4.815-.619-6.348-.619-2.262 0-3.763.226-4.505.675-.742.45-1.112 1.21-1.112 2.28v2.7c0 .827.29 1.429.875 1.805.584.378 1.617.565 3.101.565h2.845c2.457 0 4.122.445 4.998 1.332.875.888 1.313 2.293 1.313 4.214" id="Fill-1" fill="#6CB744" mask="url(#mask-2)"/><path d="M44.797 18.543V7.271c0-2.919-2.188-4.379-6.566-4.379-.925 0-1.739.056-2.444.165a7.676 7.676 0 0 0-2.043.62 3.455 3.455 0 0 0-1.532 1.35c-.365.596-.548 1.345-.548 2.244v11.272c0 2.723 2.202 4.085 6.604 4.085 4.352 0 6.529-1.362 6.529-4.085zm3.429-11.199v11.235c0 1.289-.31 2.384-.93 3.283-.62.901-1.465 1.564-2.535 1.988a15.18 15.18 0 0 1-3.174.894c-1.046.17-2.177.256-3.393.256-6.616 0-9.922-2.139-9.922-6.421V7.38c0-4.524 3.306-6.785 9.922-6.785 6.688 0 10.032 2.25 10.032 6.749z" id="Fill-3" fill="#6CB744" mask="url(#mask-2)"/></g><path id="Fill-5" fill="#6CB744" d="M77.263 387.44H64.531v7.733H76.06v2.481H64.531v10.981h-3.537V384.96h16.269v2.48"/><path id="Fill-6" fill="#6CB744" d="M106.118 387.44H98.13v21.195h-3.575V387.44h-8.027v-2.48h19.59v2.48"/><path id="Fill-7" fill="#6CB744" d="M149.311 384.96l-7.625 23.675h-4.122l-5.654-19.699-5.8 19.699h-4.123l-7.405-23.675h3.757l5.874 20.319h.073l5.872-20.319h3.759l5.872 20.319h.073l5.874-20.319h3.575"/><path d="M171.418 399.004l-4.014-10.689h-.328l-4.012 10.689h8.354zm7.26 9.631h-3.685l-2.7-7.186h-10.141l-2.664 7.186h-3.5l9.411-23.675h4.085l9.194 23.675z" id="Fill-8" fill="#6CB744"/><path d="M202.68 393.241v-3.284c0-1.774-1.532-2.663-4.597-2.663h-4.961v8.901h4.633c1.678 0 2.919-.206 3.722-.619.802-.414 1.203-1.192 1.203-2.335zm4.998 15.394h-4.341l-6.786-10.105h-3.429v10.105h-3.538V384.96h8.318c2.966 0 5.093.298 6.384.893 1.287.596 1.933 1.843 1.933 3.74v4.085c0 1.459-.596 2.561-1.788 3.302-1.192.742-2.639 1.113-4.341 1.113l7.588 10.542z" id="Fill-9" fill="#6CB744"/><g id="Group-16" transform="translate(219 384)"><mask id="mask-4" fill="#fff"><use xlink:href="#path-3"/></mask><path id="Fill-10" fill="#6CB744" mask="url(#mask-4)" d="M16.476 24.635H.207V.96h15.904v2.48H3.744v7.733h11.164v2.481H3.744v8.5h12.732v2.481"/><path d="M60.032 16.61v1.713c0 2.531-.716 4.276-2.152 5.235C56.445 24.52 54.207 25 51.169 25c-1.946 0-4.354-.195-7.225-.584v-2.955c2.871.609 5.351.913 7.443.913 1.678 0 2.96-.189 3.848-.566.888-.378 1.333-1.136 1.333-2.28v-3.065c0-.997-.287-1.707-.858-2.133-.572-.426-1.6-.64-3.082-.64h-2.773c-2.383 0-4.043-.479-4.979-1.44-.937-.96-1.405-2.377-1.405-4.249V6.103c0-1.872.662-3.258 1.988-4.158 1.325-.9 3.764-1.35 7.314-1.35 1.702 0 3.734.134 6.092.401v2.662c-2.698-.412-4.814-.619-6.348-.619-2.261 0-3.762.226-4.505.675-.741.45-1.112 1.21-1.112 2.28v2.7c0 .827.291 1.429.875 1.805.584.378 1.618.565 3.102.565h2.845c2.456 0 4.122.445 4.998 1.332.875.888 1.312 2.293 1.312 4.214" id="Fill-12" fill="#6CB744" mask="url(#mask-4)"/><path d="M88.268 18.543V7.271c0-2.919-2.189-4.379-6.566-4.379-.926 0-1.74.056-2.444.165a7.672 7.672 0 0 0-2.044.62 3.447 3.447 0 0 0-1.531 1.35c-.365.596-.548 1.345-.548 2.244v11.272c0 2.723 2.201 4.085 6.603 4.085 4.353 0 6.53-1.362 6.53-4.085zm3.428-11.199v11.235c0 1.289-.309 2.384-.93 3.283-.619.901-1.465 1.564-2.534 1.988a15.18 15.18 0 0 1-3.174.894c-1.047.17-2.177.256-3.394.256-6.615 0-9.921-2.139-9.921-6.421V7.38c0-4.524 3.306-6.785 9.921-6.785 6.688 0 10.032 2.25 10.032 6.749z" id="Fill-13" fill="#6CB744" mask="url(#mask-4)"/><path id="Fill-14" fill="#6CB744" mask="url(#mask-4)" d="M119.64 24.635h-15.175V.96h3.537v21.194h11.638v2.481"/><path d="M148.13.96v17.619c0 4.282-3.088 6.421-9.266 6.421-1.24 0-2.347-.079-3.32-.237a11.619 11.619 0 0 1-2.881-.876 4.823 4.823 0 0 1-2.225-1.988c-.535-.9-.803-2.006-.803-3.32V.96h3.392v17.583c0 1.556.524 2.626 1.568 3.21 1.047.584 2.494.875 4.343.875 1.847 0 3.276-.291 4.286-.875 1.008-.584 1.514-1.654 1.514-3.21V.96h3.392" id="Fill-15" fill="#6CB744" mask="url(#mask-4)"/></g><path id="Fill-17" fill="#6CB744" d="M397.992 387.44h-7.989v21.195h-3.575V387.44h-8.027v-2.48h19.591v2.48"/><g id="Group-23" transform="translate(409 384)"><mask id="mask-6" fill="#fff"><use xlink:href="#path-5"/></mask><path id="Fill-18" fill="#6CB744" mask="url(#mask-6)" d="M.228 24.635h3.538V.96H.228z"/><path d="M33.059 18.543V7.271c0-2.919-2.188-4.379-6.566-4.379-.925 0-1.739.056-2.444.165a7.676 7.676 0 0 0-2.043.62 3.455 3.455 0 0 0-1.532 1.35c-.365.596-.548 1.345-.548 2.244v11.272c0 2.723 2.202 4.085 6.604 4.085 4.352 0 6.529-1.362 6.529-4.085zm3.429-11.199v11.235c0 1.289-.31 2.384-.93 3.283-.62.901-1.465 1.564-2.535 1.988a15.18 15.18 0 0 1-3.174.894c-1.046.17-2.177.256-3.393.256-6.616 0-9.922-2.139-9.922-6.421V7.38c0-4.524 3.306-6.785 9.922-6.785 6.688 0 10.032 2.25 10.032 6.749z" id="Fill-20" fill="#6CB744" mask="url(#mask-6)"/><path id="Fill-21" fill="#6CB744" mask="url(#mask-6)" d="M69.502 24.635h-4.268L52.356 4.754v19.881h-3.1V.96h4.267l12.878 19.552V.96h3.101v23.675"/><path d="M98.612 16.61v1.713c0 2.531-.716 4.276-2.152 5.235C95.026 24.52 92.788 25 89.749 25c-1.946 0-4.354-.195-7.224-.584v-2.955c2.87.609 5.351.913 7.442.913 1.678 0 2.96-.189 3.848-.566.888-.378 1.333-1.136 1.333-2.28v-3.065c0-.997-.287-1.707-.858-2.133-.572-.426-1.6-.64-3.082-.64h-2.773c-2.383 0-4.043-.479-4.979-1.44-.937-.96-1.405-2.377-1.405-4.249V6.103c0-1.872.663-3.258 1.988-4.158 1.325-.9 3.764-1.35 7.314-1.35 1.702 0 3.734.134 6.092.401v2.662c-2.698-.412-4.814-.619-6.348-.619-2.261 0-3.762.226-4.505.675-.741.45-1.111 1.21-1.111 2.28v2.7c0 .827.29 1.429.874 1.805.585.378 1.618.565 3.102.565h2.845c2.456 0 4.122.445 4.998 1.332.875.888 1.312 2.293 1.312 4.214" id="Fill-22" fill="#6CB744" mask="url(#mask-6)"/></g><path id="Fill-24" fill="#6CB744" d="M401.642 228.569H136.917L254.464 88.831l69.85 72.845-128.038 39.931 184.606-9.569-49.251-74.188L254.738.521 91.06 250.29h329.415l-18.833-21.721"/><path d="M52.561 327.315l-7.06-23.854c-.974-3.767-1.542-6.217-1.703-7.347H40.51c-.163.754-.446 1.96-.851 3.617-.407 1.659-.73 2.902-.974 3.73l-7.06 23.854h20.936zm4.017 13.341H27.73l-6.086 20.463H2.657l24.221-73.485c.323-1.356 1.096-2.448 2.313-3.277 1.217-.83 2.597-1.245 4.138-1.245h17.527c3.489 0 5.64 1.509 6.451 4.522l24.223 73.485H62.664l-6.086-20.463z" id="Fill-25" fill="#1A1918"/><path d="M108.672 295.662v52.794c1.379 0 3.631.021 6.756.057 3.123.039 5.578.057 7.364.057 6.247 0 10.529-1.846 12.841-5.54 2.312-3.692 3.469-10.664 3.469-20.914 0-10.249-1.157-17.241-3.469-20.971-2.312-3.732-6.594-5.597-12.841-5.597l-14.12.114zm-18.5 65.457v-78.007c11.521-.678 22.396-1.017 32.62-1.017 13.389 0 22.7 2.865 27.935 8.592 5.233 5.729 7.85 16.205 7.85 31.429s-2.617 25.701-7.85 31.428c-5.235 5.729-14.546 8.592-27.935 8.592-10.224 0-21.099-.339-32.62-1.017z" id="Fill-26" fill="#1A1918"/><path d="M240.004 283.112l-22.761 73.259c-.407 1.433-1.197 2.582-2.373 3.447-1.177.868-2.577 1.301-4.199 1.301h-16.919c-1.624 0-3.024-.433-4.2-1.301-1.177-.865-1.967-2.014-2.373-3.447l-22.883-73.259h19.111l15.214 56.301a146.6 146.6 0 0 1 2.069 8.705h3.044c.242-1.432.931-4.334 2.068-8.705l15.093-56.301h19.109" id="Fill-27" fill="#1A1918"/><path id="Fill-28" fill="#1A1918" d="M249.377 361.119h18.5v-78.007h-18.5z"/><path d="M315.956 331.611l-16.919-5.538c-6.249-2.11-10.711-4.975-13.389-8.593-2.677-3.618-4.017-8.365-4.017-14.244 0-8.592 2.252-14.338 6.756-17.242 4.504-2.899 12.434-4.351 23.796-4.351 10.711 0 19.92 1.018 27.63 3.052l-1.218 11.757c-7.059-.225-15.824-.338-26.29-.338-4.87 0-8.117.395-9.738 1.187-1.624.79-2.435 2.77-2.435 5.935 0 2.562.609 4.409 1.826 5.539 1.218 1.13 3.53 2.224 6.938 3.278l15.945 5.088c6.492 2.112 11.077 4.993 13.754 8.648 2.678 3.657 4.017 8.424 4.017 14.302 0 8.743-2.273 14.68-6.816 17.806-4.546 3.129-12.658 4.691-24.344 4.691-9.494 0-19.109-.98-28.848-2.939l1.096-12.435c17.284.378 26.536.565 27.752.565 4.948 0 8.256-.49 9.92-1.471 1.663-.978 2.495-3.012 2.495-6.103 0-2.638-.568-4.504-1.703-5.597-1.138-1.091-3.207-2.091-6.208-2.997" id="Fill-29" fill="#1A1918"/><path d="M401.826 301.088c-2.314-3.693-6.635-5.54-12.964-5.54-6.329 0-10.651 1.847-12.963 5.54-2.312 3.693-3.469 10.702-3.469 21.028 0 10.327 1.157 17.336 3.469 21.027 2.312 3.694 6.634 5.54 12.963 5.54 6.329 0 10.65-1.846 12.964-5.54 2.312-3.691 3.468-10.7 3.468-21.027 0-10.326-1.156-17.335-3.468-21.028zm-41.019-10.796c5.233-5.767 14.585-8.649 28.055-8.649 13.469 0 22.841 2.882 28.117 8.649 5.274 5.765 7.911 16.374 7.911 31.824 0 15.451-2.637 26.058-7.911 31.823-5.276 5.767-14.648 8.649-28.117 8.649-13.47 0-22.822-2.882-28.055-8.649-5.235-5.765-7.852-16.372-7.852-31.823 0-15.45 2.617-26.059 7.852-31.824z" id="Fill-30" fill="#1A1918"/><path d="M457.268 317.368h13.389c4.868 0 8.195-.773 9.981-2.318 1.783-1.544 2.677-4.466 2.677-8.762s-.872-7.197-2.616-8.705c-1.747-1.507-5.094-2.261-10.042-2.261l-13.389.113v21.933zm47.957 43.751h-19.596l-6.331-23.854c-.811-2.487-1.886-4.2-3.225-5.145-1.338-.94-3.267-1.413-5.781-1.413l-13.024-.113v30.525H439.01v-78.007c7.547-.678 18.216-1.017 32.012-1.017 11.279 0 19.272 1.658 23.979 4.975 4.704 3.316 7.06 9.346 7.06 18.087 0 5.729-1.238 10.214-3.713 13.453-2.477 3.243-6.594 5.202-12.355 5.88v.564c6.409 1.358 10.387 5.277 11.929 11.759l7.303 24.306z" id="Fill-31" fill="#1A1918"/></g></g></svg>