<svg width="3381" height="3595" viewBox="0 0 3381 3595" fill="none" xmlns="http://www.w3.org/2000/svg">
<path d="M5.68345 1963.32C-53.8517 1259.41 369.023 569.813 587.903 313C538.872 1228.77 1164.29 1794.78 1483.12 1963.32C1980.42 2229.47 2300.27 2827.14 2398.04 3092.71C2536.37 3619.76 1794.66 3630.41 1406.51 3569.86C285.851 3272.19 5.68421 2374.8 5.68345 1963.32Z" fill="#63962F"/>
<path d="M1710.47 0C1337.47 150.561 1088.07 624.42 1010 842.529C1104.56 1234.69 1516.38 1574.91 1710.47 1696C2188.54 1382.62 2369.35 996.446 2400 842.529C2300.18 438.115 1898.72 112.337 1710.47 0Z" fill="#A6C713"/>
<path d="M2756.95 3163C2629.07 2534.26 2188.37 2085.19 1984 1939.24C2682.94 1482.14 2829.94 674.622 2816.07 328C2973.73 389.297 3214.59 1020.51 3315.31 1328.46C3564.06 2281.19 3046.71 2948.46 2756.95 3163Z" fill="#A6C713"/>
</svg>
