<svg width="170" height="37" viewBox="0 0 170 37" version="1.1" xmlns="http://www.w3.org/2000/svg" xmlns:xlink="http://www.w3.org/1999/xlink"><title>ADVISOR - Logo Software Solutions</title><defs><path id="path-1" d="M10.947 5.675H.014V.135h10.933v5.54z"/><path id="path-3" d="M.047 5.675h33.578V.135H.047v5.54z"/><path id="path-5" d="M.052 5.675h22.333V.135H.052v5.54z"/></defs><g id="Home" stroke="none" stroke-width="1" fill="none" fill-rule="evenodd"><g id="Desktop-HD" transform="translate(-231 -10)"><g id="header" transform="translate(0 -1)"><g id="menu-bar-main"><g id="ADVISOR---Logo-Software-Solutions" transform="translate(231 11)"><g id="Group-4" transform="translate(54 30.955)"><mask id="mask-2" fill="#fff"><use xlink:href="#path-1"/></mask><path d="M3.76 3.78v.39c0 .575-.163.972-.49 1.19-.325.22-.833.328-1.523.328-.441 0-.988-.044-1.64-.133v-.672c.652.139 1.215.208 1.69.208.381 0 .672-.043.873-.129.202-.086.303-.258.303-.519v-.697c0-.227-.065-.389-.195-.485-.13-.097-.363-.146-.7-.146H1.45c-.54 0-.918-.11-1.13-.328C.106 2.57 0 2.247 0 1.82V1.39C0 .963.15.647.451.443c.301-.205.855-.308 1.66-.308.387 0 .848.03 1.384.092v.605C2.882.74 2.402.692 2.054.692c-.514 0-.855.05-1.023.153-.168.102-.252.275-.252.519v.614c0 .188.065.325.198.41.133.087.367.13.704.13h.646c.558 0 .936.1 1.134.303.2.202.299.521.299.958" id="Fill-1" fill="#6CB744" mask="url(#mask-2)"/><path d="M10.169 4.22V1.653c0-.664-.497-.996-1.49-.996-.21 0-.395.013-.555.038a1.74 1.74 0 0 0-.464.14.785.785 0 0 0-.348.308.965.965 0 0 0-.124.51V4.22c0 .62.5.93 1.499.93.988 0 1.482-.31 1.482-.93zm.778-2.549v2.556c0 .294-.07.543-.21.747a1.23 1.23 0 0 1-.576.453 3.44 3.44 0 0 1-.72.203 4.796 4.796 0 0 1-.771.058c-1.502 0-2.252-.486-2.252-1.46V1.678c0-1.03.75-1.544 2.252-1.544 1.518 0 2.277.512 2.277 1.536z" id="Fill-3" fill="#6CB744" mask="url(#mask-2)"/></g><path id="Fill-5" fill="#6CB744" d="M71.539 31.737h-2.89v1.76h2.616v.564h-2.617v2.499h-.802v-5.387h3.693v.564"/><path id="Fill-6" fill="#6CB744" d="M78.089 31.737h-1.814v4.823h-.811v-4.823h-1.822v-.564h4.447v.564"/><path id="Fill-7" fill="#6CB744" d="M87.893 31.173l-1.73 5.387h-.936l-1.284-4.482-1.316 4.482h-.936l-1.681-5.387h.853l1.333 4.623h.017l1.333-4.623h.853l1.333 4.623h.016l1.334-4.623h.811"/><path d="M92.912 34.369L92 31.937h-.074l-.91 2.432h1.896zm1.648 2.191h-.837l-.613-1.635h-2.302l-.605 1.635h-.794l2.136-5.387h.928l2.087 5.387z" id="Fill-8" fill="#6CB744"/><path d="M100.008 33.057v-.747c0-.404-.348-.606-1.044-.606h-1.126v2.025h1.052c.38 0 .663-.046.845-.14.182-.095.273-.272.273-.532zm1.135 3.503h-.986l-1.54-2.3h-.779v2.3h-.803v-5.387h1.888c.674 0 1.157.068 1.45.203.292.136.438.42.438.851v.93c0 .332-.135.582-.406.751-.27.169-.599.253-.985.253l1.723 2.399z" id="Fill-9" fill="#6CB744"/><g id="Group-16" transform="translate(103.713 30.955)"><mask id="mask-4" fill="#fff"><use xlink:href="#path-3"/></mask><path id="Fill-10" fill="#6CB744" mask="url(#mask-4)" d="M3.74 5.605H.047V.218h3.61v.565H.85v1.76h2.534v.564H.85V5.04h2.89v.564"/><path d="M13.627 3.78v.39c0 .575-.162.972-.488 1.19-.326.22-.834.328-1.524.328-.441 0-.988-.044-1.64-.133v-.672c.652.139 1.215.208 1.69.208.38 0 .672-.043.873-.129.202-.086.303-.258.303-.519v-.697c0-.227-.065-.389-.195-.485-.13-.097-.363-.146-.7-.146h-.629c-.54 0-.918-.11-1.13-.328-.213-.218-.32-.54-.32-.967V1.39c0-.426.151-.742.452-.946.3-.205.855-.308 1.66-.308.387 0 .848.03 1.383.092v.605c-.612-.093-1.093-.14-1.44-.14-.514 0-.855.05-1.023.153-.169.102-.253.275-.253.519v.614c0 .188.066.325.199.41.132.087.367.13.704.13h.646c.557 0 .935.1 1.134.303.199.202.298.521.298.958" id="Fill-12" fill="#6CB744" mask="url(#mask-4)"/><path d="M20.037 4.22V1.653c0-.664-.497-.996-1.49-.996-.211 0-.396.013-.556.038-.16.025-.314.072-.464.14a.783.783 0 0 0-.347.308.965.965 0 0 0-.124.51V4.22c0 .62.5.93 1.498.93.989 0 1.483-.31 1.483-.93zm.778-2.549v2.556c0 .294-.07.543-.211.747a1.23 1.23 0 0 1-.575.453 3.44 3.44 0 0 1-.721.203 4.8 4.8 0 0 1-.77.058c-1.502 0-2.252-.486-2.252-1.46V1.678c0-1.03.75-1.544 2.252-1.544 1.518 0 2.277.512 2.277 1.536z" id="Fill-13" fill="#6CB744" mask="url(#mask-4)"/><path id="Fill-14" fill="#6CB744" mask="url(#mask-4)" d="M27.158 5.605h-3.445V.218h.803v4.823h2.642v.564"/><path d="M33.625.218v4.01c0 .974-.7 1.46-2.103 1.46-.282 0-.533-.018-.754-.054a2.633 2.633 0 0 1-.654-.199 1.096 1.096 0 0 1-.505-.452c-.121-.205-.182-.457-.182-.756V.218h.77V4.22c0 .354.119.598.356.73.237.133.566.2.986.2.419 0 .743-.067.973-.2.228-.132.343-.376.343-.73v-4h.77" id="Fill-15" fill="#6CB744" mask="url(#mask-4)"/></g><path id="Fill-17" fill="#6CB744" d="M144.343 31.737h-1.813v4.823h-.812v-4.823h-1.822v-.564h4.447v.564"/><g id="Group-23" transform="translate(146.842 30.955)"><mask id="mask-6" fill="#fff"><use xlink:href="#path-5"/></mask><path id="Fill-18" fill="#6CB744" mask="url(#mask-6)" d="M.052 5.605h.803V.218H.052z"/><path d="M7.504 4.22V1.653c0-.664-.496-.996-1.49-.996-.21 0-.395.013-.555.038a1.74 1.74 0 0 0-.464.14.785.785 0 0 0-.347.308.965.965 0 0 0-.125.51V4.22c0 .62.5.93 1.5.93.987 0 1.481-.31 1.481-.93zm.779-2.549v2.556c0 .294-.07.543-.211.747a1.23 1.23 0 0 1-.576.453 3.44 3.44 0 0 1-.72.203 4.796 4.796 0 0 1-.77.058c-1.502 0-2.253-.486-2.253-1.46V1.678c0-1.03.75-1.544 2.252-1.544 1.519 0 2.278.512 2.278 1.536z" id="Fill-20" fill="#6CB744" mask="url(#mask-6)"/><path id="Fill-21" fill="#6CB744" mask="url(#mask-6)" d="M15.777 5.605h-.969l-2.923-4.523v4.523h-.704V.218h.969l2.923 4.45V.217h.704v5.387"/><path d="M22.385 3.78v.39c0 .575-.163.972-.489 1.19-.325.22-.833.328-1.523.328-.442 0-.988-.044-1.64-.133v-.672c.652.139 1.215.208 1.69.208.38 0 .671-.043.873-.129.201-.086.302-.258.302-.519v-.697c0-.227-.065-.389-.194-.485-.13-.097-.364-.146-.7-.146h-.63c-.54 0-.917-.11-1.13-.328-.212-.218-.319-.54-.319-.967V1.39c0-.426.15-.742.452-.946.3-.205.854-.308 1.66-.308.386 0 .848.03 1.383.092v.605c-.613-.093-1.093-.14-1.441-.14-.513 0-.854.05-1.023.153-.168.102-.252.275-.252.519v.614c0 .188.066.325.198.41.133.087.368.13.705.13h.645c.558 0 .936.1 1.135.303.199.202.298.521.298.958" id="Fill-22" fill="#6CB744" mask="url(#mask-6)"/></g><path id="Fill-24" fill="#6CB744" d="M45.9 33.782H6.777l17.372-20.7 10.323 10.791-18.922 5.915 27.282-1.417-7.278-10.99L24.19 0 0 37h48.684L45.9 33.782"/><path d="M65.931 18.057l-1.602-5.428c-.221-.857-.35-1.414-.387-1.671h-.746a35.188 35.188 0 0 1-.415 1.671l-1.602 5.428h4.752zm.912 3.035h-6.548l-1.382 4.657h-4.31l5.498-16.72c.074-.31.249-.558.525-.746.277-.19.59-.284.94-.284h3.978c.792 0 1.28.344 1.465 1.03l5.498 16.72h-4.282l-1.382-4.657z" id="Fill-25" fill="#1A1918"/><path d="M78.668 10.855v12.012c.313 0 .825.005 1.534.013.709.01 1.266.013 1.672.013 1.418 0 2.39-.42 2.914-1.26.525-.84.788-2.427.788-4.759 0-2.332-.263-3.923-.788-4.772-.524-.849-1.496-1.273-2.914-1.273l-3.206.026zm-4.2 14.894V7.999c2.616-.154 5.085-.231 7.406-.231 3.039 0 5.152.652 6.34 1.955 1.189 1.303 1.783 3.687 1.783 7.151s-.594 5.848-1.782 7.15c-1.189 1.304-3.302 1.956-6.341 1.956-2.321 0-4.79-.077-7.405-.231z" id="Fill-26" fill="#1A1918"/><path d="M108.48 8l-5.166 16.668a1.43 1.43 0 0 1-.539.784 1.559 1.559 0 0 1-.953.297h-3.84c-.37 0-.687-.099-.954-.297a1.429 1.429 0 0 1-.539-.784L91.295 8h4.338l3.454 12.81c.183.687.34 1.347.47 1.981h.69c.055-.325.212-.986.47-1.98L104.143 8h4.337" id="Fill-27" fill="#1A1918"/><path id="Fill-28" fill="#1A1918" d="M110.608 25.749h4.2V7.999h-4.2z"/><path d="M125.721 19.034l-3.84-1.26c-1.419-.48-2.432-1.132-3.04-1.955-.607-.823-.911-1.903-.911-3.24 0-1.956.51-3.263 1.533-3.924 1.023-.66 2.823-.99 5.402-.99 2.431 0 4.522.232 6.272.694l-.277 2.676a192.33 192.33 0 0 0-5.967-.077c-1.106 0-1.843.09-2.21.27-.37.18-.554.63-.554 1.35 0 .583.139 1.003.415 1.26.276.258.801.507 1.575.746l3.62 1.158c1.473.48 2.514 1.136 3.121 1.968.608.832.912 1.916.912 3.254 0 1.99-.516 3.34-1.547 4.051-1.032.712-2.873 1.068-5.526 1.068a33.07 33.07 0 0 1-6.548-.669l.248-2.83c3.924.087 6.024.13 6.3.13 1.123 0 1.874-.112 2.252-.335.377-.223.566-.686.566-1.39 0-.6-.129-1.024-.386-1.273-.259-.248-.728-.475-1.41-.682" id="Fill-29" fill="#1A1918"/><path d="M145.214 12.09c-.525-.84-1.506-1.261-2.943-1.261s-2.418.42-2.943 1.26c-.524.84-.787 2.435-.787 4.785s.263 3.945.787 4.784c.525.84 1.506 1.26 2.943 1.26s2.418-.42 2.943-1.26c.525-.84.787-2.434.787-4.784 0-2.35-.262-3.944-.787-4.785zm-9.311-2.457c1.187-1.312 3.31-1.968 6.368-1.968 3.057 0 5.185.656 6.382 1.968 1.198 1.312 1.796 3.726 1.796 7.241 0 3.516-.598 5.93-1.796 7.24-1.197 1.313-3.325 1.969-6.382 1.969-3.058 0-5.18-.656-6.368-1.968-1.189-1.312-1.783-3.725-1.783-7.241 0-3.515.594-5.93 1.783-7.241z" id="Fill-30" fill="#1A1918"/><path d="M157.799 15.794h3.04c1.104 0 1.86-.176 2.265-.528.405-.351.608-1.016.608-1.993 0-.978-.198-1.638-.594-1.981-.397-.343-1.157-.515-2.28-.515l-3.039.026v4.99zm10.886 9.955h-4.448L162.8 20.32c-.184-.566-.428-.956-.732-1.17-.304-.215-.742-.322-1.313-.322l-2.956-.026v6.946h-4.145V7.999c1.714-.154 4.135-.231 7.267-.231 2.56 0 4.375.377 5.443 1.132 1.068.754 1.603 2.126 1.603 4.115 0 1.304-.281 2.324-.843 3.061-.562.738-1.497 1.184-2.804 1.338v.129c1.454.308 2.357 1.2 2.707 2.675l1.658 5.53z" id="Fill-31" fill="#1A1918"/></g></g></g></g></g></svg>