<?xml version="1.0" encoding="UTF-8" standalone="no"?>
<!DOCTYPE svg PUBLIC "-//W3C//DTD SVG 1.1//EN" "http://www.w3.org/Graphics/SVG/1.1/DTD/svg11.dtd">
<svg width="100%" height="100%" viewBox="0 0 205 34" version="1.1" xmlns="http://www.w3.org/2000/svg" xmlns:xlink="http://www.w3.org/1999/xlink" xml:space="preserve" xmlns:serif="http://www.serif.com/" style="fill-rule:evenodd;clip-rule:evenodd;stroke-linejoin:round;stroke-miterlimit:2;">
    <g transform="matrix(0.151757,0,0,0.151757,-164.152,-172.009)">
        <g transform="matrix(-0.393733,0,0,0.393733,1803.88,703.348)">
            <path d="M1415.05,1137.42C1411.99,1189.83 1424.04,1242.45 1449.97,1287.66C1472.02,1326.09 1502.84,1359.34 1538.91,1384.79C1538.91,1384.79 1534.91,1388.77 1530.4,1393.03C1491.01,1430.25 1451.36,1468.24 1431.74,1521.91C1426,1537.61 1422.94,1554.89 1426.71,1571.52L1426.8,1571.89C1363.18,1530.97 1327.62,1455.81 1328.59,1378.64C1329.68,1291.82 1361.14,1205.68 1414.89,1136.93C1414.89,1136.93 1415.16,1135.76 1415.05,1137.42Z" style="fill:rgb(166,199,20);fill-rule:nonzero;"/>
        </g>
        <g transform="matrix(-0.393733,0,0,0.393733,1803.88,703.348)">
            <path d="M1746.21,1138.34C1801.99,1211.71 1837.98,1302.9 1833.95,1393.59C1832.27,1431.45 1820.44,1468.63 1800.44,1501.11C1762.34,1562.98 1698.97,1608.08 1630.24,1627.7C1588.84,1639.52 1541.66,1641.5 1502.64,1623.13C1488.01,1616.23 1475.23,1603.56 1472.05,1587.17C1467.29,1562.61 1478.13,1537.08 1491.07,1514.25C1523.76,1456.59 1576.34,1410.05 1629.5,1373.78C1674.98,1342.51 1712.03,1297.7 1730.69,1245.75C1742.96,1211.59 1747.89,1174.99 1746.09,1138.67C1746.09,1138.67 1745.81,1137.82 1746.21,1138.34Z" style="fill:rgb(99,150,47);fill-rule:nonzero;"/>
        </g>
        <g transform="matrix(-0.64913,0,0,0.792343,1673.84,919.232)">
            <path d="M756.74,270.402C786.594,284.12 808.79,307.898 819.707,334.278L819.774,334.441C811.756,361.494 787.476,383.498 757.048,397.802L756.697,397.966C727.548,383.571 703.008,361.716 693.495,334.371C704.725,307.754 726.869,284.05 756.635,270.355C756.67,270.371 756.705,270.386 756.74,270.402Z" style="fill:rgb(166,199,20);fill-rule:nonzero;"/>
        </g>
    </g>
    <g transform="matrix(0.105244,0,0,0.105244,-73.6772,-267.514)">
        <g transform="matrix(9.59196,0,0,9.59196,-2317.44,-315.323)">
            <path d="M364.89,311.431L360.921,319.453L358.968,319.453L355.02,311.431L355.02,320.671L351.744,320.671L351.744,305.992L356.175,305.992L359.955,314.056L363.756,305.992L368.166,305.992L368.166,320.671L364.89,320.671L364.89,311.431Z" style="fill:rgb(21,84,43);fill-rule:nonzero;"/>
        </g>
        <g transform="matrix(9.59196,0,0,9.59196,-2317.44,-315.323)">
            <path d="M382.236,320.671L380.871,317.5L374.718,317.5L373.353,320.671L369.867,320.671L376.209,305.992L379.38,305.992L385.722,320.671L382.236,320.671ZM377.805,310.36L375.957,314.623L379.632,314.623L377.805,310.36Z" style="fill:rgb(21,84,43);fill-rule:nonzero;"/>
        </g>
        <g transform="matrix(9.59196,0,0,9.59196,-2317.44,-315.323)">
            <path d="M392.568,308.827L392.568,320.671L389.292,320.671L389.292,308.827L385.134,308.827L385.134,305.992L396.726,305.992L396.726,308.827L392.568,308.827Z" style="fill:rgb(21,84,43);fill-rule:nonzero;"/>
        </g>
        <g transform="matrix(9.59196,0,0,9.59196,-2317.44,-315.323)">
            <path d="M405.861,317.773C407.471,317.773 408.787,317.136 409.809,315.862L411.909,318.025C410.243,319.901 408.279,320.839 406.018,320.839C403.757,320.839 401.895,320.125 400.432,318.697C398.969,317.269 398.238,315.467 398.238,313.29C398.238,311.113 398.983,309.296 400.474,307.84C401.965,306.384 403.789,305.656 405.945,305.656C408.353,305.656 410.369,306.573 411.993,308.407L409.956,310.717C408.92,309.429 407.632,308.785 406.092,308.785C404.86,308.785 403.806,309.188 402.931,309.993C402.056,310.798 401.619,311.883 401.619,313.248C401.619,314.613 402.032,315.708 402.858,316.534C403.684,317.36 404.685,317.773 405.861,317.773Z" style="fill:rgb(21,84,43);fill-rule:nonzero;"/>
        </g>
        <g transform="matrix(9.59196,0,0,9.59196,-2317.44,-315.323)">
            <path d="M423.606,305.992L426.882,305.992L426.882,320.671L423.606,320.671L423.606,314.896L417.768,314.896L417.768,320.671L414.492,320.671L414.492,305.992L417.768,305.992L417.768,312.124L423.606,312.124L423.606,305.992Z" style="fill:rgb(21,84,43);fill-rule:nonzero;"/>
        </g>
        <g transform="matrix(9.59196,0,0,9.59196,-2317.44,-315.323)">
            <path d="M447.273,313.248C447.273,311.939 446.853,310.822 446.013,309.898C445.173,308.974 444.14,308.512 442.915,308.512C441.69,308.512 440.658,308.974 439.818,309.898C438.978,310.822 438.558,311.939 438.558,313.248C438.558,314.557 438.978,315.67 439.818,316.587C440.658,317.504 441.69,317.962 442.915,317.962C444.14,317.962 445.173,317.504 446.013,316.587C446.853,315.67 447.273,314.557 447.273,313.248ZM448.386,318.645C446.902,320.094 445.075,320.818 442.905,320.818C440.735,320.818 438.908,320.094 437.424,318.645C435.94,317.196 435.198,315.393 435.198,313.237C435.198,311.081 435.94,309.279 437.424,307.83C438.908,306.381 440.735,305.656 442.905,305.656C445.075,305.656 446.902,306.381 448.386,307.83C449.87,309.279 450.612,311.081 450.612,313.237C450.612,315.393 449.87,317.196 448.386,318.645Z" style="fill:rgb(21,84,43);fill-rule:nonzero;"/>
        </g>
        <g transform="matrix(9.59196,0,0,9.59196,-2317.44,-315.323)">
            <path d="M463.653,305.992L466.929,305.992L466.929,320.671L463.653,320.671L456.66,311.473L456.66,320.671L453.384,320.671L453.384,305.992L456.45,305.992L463.653,315.442L463.653,305.992Z" style="fill:rgb(21,84,43);fill-rule:nonzero;"/>
        </g>
        <g transform="matrix(9.59196,0,0,9.59196,-2317.44,-315.323)">
            <path d="M470.541,320.671L470.541,305.992L473.817,305.992L473.817,317.752L480.075,317.752L480.075,320.671L470.541,320.671Z" style="fill:rgb(21,84,43);fill-rule:nonzero;"/>
        </g>
        <g transform="matrix(9.59196,0,0,9.59196,-2317.44,-315.323)">
            <rect x="482.469" y="305.992" width="3.276" height="14.679" style="fill:rgb(21,84,43);"/>
        </g>
        <g transform="matrix(9.59196,0,0,9.59196,-2317.44,-315.323)">
            <path d="M499.626,305.992L502.902,305.992L502.902,320.671L499.626,320.671L492.633,311.473L492.633,320.671L489.357,320.671L489.357,305.992L492.423,305.992L499.626,315.442L499.626,305.992Z" style="fill:rgb(21,84,43);fill-rule:nonzero;"/>
        </g>
        <g transform="matrix(9.59196,0,0,9.59196,-2317.44,-315.323)">
            <path d="M517.098,305.992L517.098,308.911L509.79,308.911L509.79,311.935L516.363,311.935L516.363,314.728L509.79,314.728L509.79,317.773L517.329,317.773L517.329,320.671L506.514,320.671L506.514,305.992L517.098,305.992Z" style="fill:rgb(21,84,43);fill-rule:nonzero;"/>
        </g>
    </g>
    <g transform="matrix(0.151757,0,0,0.151757,-36.984,-118.029)">
        <g transform="matrix(67.083,0,0,67.083,807.631,996.631)">
            <path d="M0.3,-0.197L0.16,-0.229C0.12,-0.238 0.092,-0.253 0.075,-0.274C0.058,-0.295 0.05,-0.325 0.05,-0.365C0.05,-0.419 0.064,-0.455 0.093,-0.473C0.121,-0.492 0.17,-0.5 0.24,-0.499C0.318,-0.498 0.386,-0.493 0.445,-0.484L0.438,-0.422C0.337,-0.425 0.275,-0.427 0.253,-0.427C0.204,-0.428 0.171,-0.425 0.156,-0.418C0.141,-0.411 0.133,-0.394 0.133,-0.365C0.133,-0.342 0.138,-0.326 0.149,-0.317C0.159,-0.308 0.177,-0.301 0.204,-0.295L0.346,-0.263C0.386,-0.253 0.415,-0.238 0.433,-0.219C0.45,-0.199 0.459,-0.169 0.459,-0.129C0.459,-0.072 0.443,-0.035 0.412,-0.017C0.381,0.002 0.327,0.011 0.251,0.011C0.183,0.011 0.119,0.006 0.06,-0.003L0.066,-0.065C0.123,-0.062 0.179,-0.06 0.234,-0.061C0.291,-0.061 0.329,-0.065 0.348,-0.074C0.367,-0.083 0.377,-0.101 0.377,-0.129C0.377,-0.151 0.371,-0.166 0.36,-0.174C0.348,-0.183 0.328,-0.19 0.3,-0.197Z" style="fill:rgb(166,199,20);fill-rule:nonzero;"/>
        </g>
        <g transform="matrix(67.083,0,0,67.083,841.709,996.631)">
            <path d="M0.284,-0.499C0.368,-0.499 0.427,-0.48 0.462,-0.441C0.496,-0.402 0.513,-0.336 0.513,-0.243C0.513,-0.15 0.496,-0.084 0.462,-0.045C0.427,-0.006 0.368,0.013 0.284,0.013C0.201,0.013 0.142,-0.006 0.107,-0.045C0.072,-0.084 0.055,-0.15 0.055,-0.243C0.055,-0.336 0.072,-0.402 0.107,-0.441C0.142,-0.48 0.201,-0.499 0.284,-0.499ZM0.395,-0.388C0.374,-0.414 0.337,-0.427 0.284,-0.427C0.231,-0.427 0.194,-0.414 0.174,-0.388C0.154,-0.362 0.144,-0.314 0.144,-0.243C0.144,-0.172 0.154,-0.124 0.174,-0.098C0.194,-0.072 0.231,-0.059 0.284,-0.059C0.337,-0.059 0.374,-0.072 0.395,-0.098C0.415,-0.124 0.425,-0.172 0.425,-0.243C0.425,-0.314 0.415,-0.362 0.395,-0.388Z" style="fill:rgb(166,199,20);fill-rule:nonzero;"/>
        </g>
        <g transform="matrix(67.083,0,0,67.083,879.745,996.631)">
            <path d="M0.388,-0.647L0.288,-0.647C0.256,-0.647 0.234,-0.641 0.221,-0.628C0.207,-0.616 0.201,-0.595 0.201,-0.565L0.201,-0.487L0.357,-0.487L0.357,-0.42L0.201,-0.42L0.201,-0L0.116,-0L0.116,-0.42L0.028,-0.42L0.028,-0.482L0.116,-0.486L0.116,-0.574C0.116,-0.621 0.127,-0.657 0.149,-0.681C0.171,-0.705 0.207,-0.717 0.258,-0.717C0.314,-0.717 0.36,-0.715 0.395,-0.71L0.388,-0.647Z" style="fill:rgb(166,199,20);fill-rule:nonzero;"/>
        </g>
        <g transform="matrix(67.083,0,0,67.083,905.237,996.631)">
            <path d="M0.2,-0.42L0.2,-0.134C0.2,-0.111 0.205,-0.094 0.215,-0.084C0.225,-0.074 0.242,-0.069 0.266,-0.069L0.34,-0.069L0.35,-0.004C0.319,0.005 0.283,0.009 0.24,0.009C0.199,0.009 0.168,-0.002 0.147,-0.025C0.126,-0.048 0.115,-0.08 0.115,-0.123L0.115,-0.42L0.027,-0.42L0.027,-0.482L0.115,-0.486L0.115,-0.631L0.2,-0.631L0.2,-0.487L0.355,-0.487L0.355,-0.42L0.2,-0.42Z" style="fill:rgb(166,199,20);fill-rule:nonzero;"/>
        </g>
        <g transform="matrix(67.083,0,0,67.083,930.795,996.631)">
            <path d="M0.799,-0.487L0.657,-0.024C0.653,-0.008 0.642,-0 0.624,-0L0.547,-0C0.539,-0 0.532,-0.003 0.526,-0.008C0.519,-0.013 0.515,-0.019 0.514,-0.027L0.434,-0.358C0.432,-0.367 0.429,-0.381 0.426,-0.398C0.423,-0.414 0.42,-0.427 0.418,-0.435L0.406,-0.435L0.389,-0.358L0.31,-0.027C0.305,-0.009 0.294,-0 0.276,-0L0.2,-0C0.182,-0 0.171,-0.008 0.167,-0.024L0.025,-0.487L0.113,-0.487L0.214,-0.128C0.22,-0.107 0.225,-0.083 0.23,-0.055L0.243,-0.055L0.261,-0.128L0.342,-0.46C0.345,-0.478 0.356,-0.487 0.374,-0.487L0.451,-0.487C0.468,-0.487 0.478,-0.478 0.483,-0.459L0.563,-0.128C0.564,-0.121 0.567,-0.109 0.571,-0.093C0.575,-0.076 0.578,-0.064 0.58,-0.055L0.593,-0.055C0.594,-0.058 0.596,-0.069 0.6,-0.086C0.603,-0.104 0.607,-0.118 0.61,-0.128L0.711,-0.487L0.799,-0.487Z" style="fill:rgb(166,199,20);fill-rule:nonzero;"/>
        </g>
        <g transform="matrix(67.083,0,0,67.083,985.872,996.631)">
            <path d="M0.081,-0.414L0.073,-0.477C0.162,-0.492 0.241,-0.499 0.308,-0.499C0.365,-0.499 0.407,-0.487 0.434,-0.464C0.461,-0.44 0.475,-0.4 0.475,-0.343L0.475,-0L0.408,-0L0.398,-0.08C0.375,-0.057 0.345,-0.036 0.311,-0.018C0.276,-0 0.238,0.009 0.197,0.009C0.152,0.009 0.117,-0.003 0.091,-0.027C0.064,-0.05 0.051,-0.084 0.051,-0.127L0.051,-0.18C0.051,-0.218 0.063,-0.248 0.086,-0.269C0.11,-0.29 0.143,-0.3 0.186,-0.3L0.389,-0.3L0.389,-0.343C0.389,-0.374 0.382,-0.395 0.368,-0.408C0.354,-0.421 0.328,-0.427 0.29,-0.427C0.242,-0.427 0.172,-0.423 0.081,-0.414ZM0.138,-0.168L0.138,-0.137C0.138,-0.112 0.144,-0.093 0.156,-0.082C0.168,-0.07 0.187,-0.064 0.214,-0.064C0.239,-0.063 0.268,-0.069 0.301,-0.082C0.333,-0.095 0.362,-0.113 0.389,-0.137L0.389,-0.235L0.201,-0.235C0.178,-0.234 0.162,-0.228 0.153,-0.217C0.143,-0.206 0.138,-0.189 0.138,-0.168Z" style="fill:rgb(166,199,20);fill-rule:nonzero;"/>
        </g>
        <g transform="matrix(67.083,0,0,67.083,1022.7,996.631)">
            <path d="M0.383,-0.499L0.373,-0.419L0.345,-0.419C0.32,-0.419 0.295,-0.414 0.269,-0.405C0.242,-0.395 0.207,-0.379 0.163,-0.357L0.163,-0L0.078,-0L0.078,-0.487L0.144,-0.487L0.153,-0.41C0.228,-0.469 0.298,-0.499 0.361,-0.499L0.383,-0.499Z" style="fill:rgb(166,199,20);fill-rule:nonzero;"/>
        </g>
        <g transform="matrix(67.083,0,0,67.083,1048.73,996.631)">
            <path d="M0.371,-0.202L0.144,-0.202C0.149,-0.146 0.162,-0.108 0.185,-0.089C0.208,-0.07 0.245,-0.06 0.298,-0.06C0.353,-0.06 0.41,-0.064 0.467,-0.072L0.476,-0.015C0.433,0.003 0.37,0.012 0.287,0.012C0.203,0.012 0.143,-0.008 0.108,-0.047C0.072,-0.086 0.054,-0.152 0.054,-0.245C0.054,-0.339 0.071,-0.405 0.106,-0.443C0.141,-0.48 0.198,-0.499 0.278,-0.499C0.351,-0.499 0.404,-0.486 0.437,-0.46C0.47,-0.433 0.487,-0.393 0.487,-0.34C0.488,-0.248 0.45,-0.202 0.371,-0.202ZM0.143,-0.268L0.349,-0.268C0.384,-0.268 0.402,-0.292 0.402,-0.34C0.401,-0.371 0.392,-0.394 0.374,-0.407C0.356,-0.42 0.325,-0.427 0.282,-0.427C0.231,-0.427 0.195,-0.416 0.175,-0.394C0.155,-0.371 0.144,-0.329 0.143,-0.268Z" style="fill:rgb(166,199,20);fill-rule:nonzero;"/>
        </g>
        <g transform="matrix(67.083,0,0,67.083,1098.24,996.631)">
            <path d="M0.511,-0.487L0.333,-0.021C0.328,-0.007 0.318,-0 0.303,-0L0.226,-0C0.211,-0 0.201,-0.007 0.196,-0.021L0.018,-0.487L0.109,-0.487L0.229,-0.146C0.236,-0.127 0.245,-0.099 0.258,-0.061L0.271,-0.061L0.301,-0.146L0.421,-0.487L0.511,-0.487Z" style="fill:rgb(166,199,20);fill-rule:nonzero;"/>
        </g>
        <g transform="matrix(67.083,0,0,67.083,1133.39,996.631)">
            <path d="M0.284,-0.499C0.368,-0.499 0.427,-0.48 0.462,-0.441C0.496,-0.402 0.513,-0.336 0.513,-0.243C0.513,-0.15 0.496,-0.084 0.462,-0.045C0.427,-0.006 0.368,0.013 0.284,0.013C0.201,0.013 0.142,-0.006 0.107,-0.045C0.072,-0.084 0.055,-0.15 0.055,-0.243C0.055,-0.336 0.072,-0.402 0.107,-0.441C0.142,-0.48 0.201,-0.499 0.284,-0.499ZM0.395,-0.388C0.374,-0.414 0.337,-0.427 0.284,-0.427C0.231,-0.427 0.194,-0.414 0.174,-0.388C0.154,-0.362 0.144,-0.314 0.144,-0.243C0.144,-0.172 0.154,-0.124 0.174,-0.098C0.194,-0.072 0.231,-0.059 0.284,-0.059C0.337,-0.059 0.374,-0.072 0.395,-0.098C0.415,-0.124 0.425,-0.172 0.425,-0.243C0.425,-0.314 0.415,-0.362 0.395,-0.388Z" style="fill:rgb(166,199,20);fill-rule:nonzero;"/>
        </g>
        <g transform="matrix(67.083,0,0,67.083,1171.49,996.631)">
            <path d="M0.284,-0.499C0.368,-0.499 0.427,-0.48 0.462,-0.441C0.496,-0.402 0.513,-0.336 0.513,-0.243C0.513,-0.15 0.496,-0.084 0.462,-0.045C0.427,-0.006 0.368,0.013 0.284,0.013C0.201,0.013 0.142,-0.006 0.107,-0.045C0.072,-0.084 0.055,-0.15 0.055,-0.243C0.055,-0.336 0.072,-0.402 0.107,-0.441C0.142,-0.48 0.201,-0.499 0.284,-0.499ZM0.395,-0.388C0.374,-0.414 0.337,-0.427 0.284,-0.427C0.231,-0.427 0.194,-0.414 0.174,-0.388C0.154,-0.362 0.144,-0.314 0.144,-0.243C0.144,-0.172 0.154,-0.124 0.174,-0.098C0.194,-0.072 0.231,-0.059 0.284,-0.059C0.337,-0.059 0.374,-0.072 0.395,-0.098C0.415,-0.124 0.425,-0.172 0.425,-0.243C0.425,-0.314 0.415,-0.362 0.395,-0.388Z" style="fill:rgb(166,199,20);fill-rule:nonzero;"/>
        </g>
        <g transform="matrix(67.083,0,0,67.083,1209.59,996.631)">
            <path d="M0.383,-0.499L0.373,-0.419L0.345,-0.419C0.32,-0.419 0.295,-0.414 0.269,-0.405C0.242,-0.395 0.207,-0.379 0.163,-0.357L0.163,-0L0.078,-0L0.078,-0.487L0.144,-0.487L0.153,-0.41C0.228,-0.469 0.298,-0.499 0.361,-0.499L0.383,-0.499Z" style="fill:rgb(166,199,20);fill-rule:nonzero;"/>
        </g>
        <g transform="matrix(67.083,0,0,67.083,1250.11,996.631)">
            <path d="M0.494,-0.7L0.494,-0L0.428,-0L0.42,-0.07C0.358,-0.015 0.294,0.012 0.227,0.012C0.167,0.012 0.124,-0.009 0.097,-0.051C0.07,-0.094 0.056,-0.158 0.056,-0.245C0.056,-0.338 0.071,-0.403 0.1,-0.442C0.129,-0.48 0.176,-0.499 0.24,-0.499C0.303,-0.499 0.361,-0.484 0.413,-0.454C0.41,-0.483 0.409,-0.515 0.409,-0.55L0.409,-0.7L0.494,-0.7ZM0.409,-0.129L0.409,-0.398C0.345,-0.416 0.295,-0.425 0.26,-0.425C0.217,-0.425 0.186,-0.413 0.169,-0.388C0.152,-0.363 0.143,-0.316 0.143,-0.246C0.143,-0.176 0.152,-0.128 0.169,-0.102C0.186,-0.075 0.214,-0.062 0.255,-0.062C0.28,-0.062 0.303,-0.067 0.324,-0.077C0.345,-0.086 0.373,-0.104 0.409,-0.129Z" style="fill:rgb(166,199,20);fill-rule:nonzero;"/>
        </g>
        <g transform="matrix(67.083,0,0,67.083,1288.55,996.631)">
            <path d="M0.371,-0.202L0.144,-0.202C0.149,-0.146 0.162,-0.108 0.185,-0.089C0.208,-0.07 0.245,-0.06 0.298,-0.06C0.353,-0.06 0.41,-0.064 0.467,-0.072L0.476,-0.015C0.433,0.003 0.37,0.012 0.287,0.012C0.203,0.012 0.143,-0.008 0.108,-0.047C0.072,-0.086 0.054,-0.152 0.054,-0.245C0.054,-0.339 0.071,-0.405 0.106,-0.443C0.141,-0.48 0.198,-0.499 0.278,-0.499C0.351,-0.499 0.404,-0.486 0.437,-0.46C0.47,-0.433 0.487,-0.393 0.487,-0.34C0.488,-0.248 0.45,-0.202 0.371,-0.202ZM0.143,-0.268L0.349,-0.268C0.384,-0.268 0.402,-0.292 0.402,-0.34C0.401,-0.371 0.392,-0.394 0.374,-0.407C0.356,-0.42 0.325,-0.427 0.282,-0.427C0.231,-0.427 0.195,-0.416 0.175,-0.394C0.155,-0.371 0.144,-0.329 0.143,-0.268Z" style="fill:rgb(166,199,20);fill-rule:nonzero;"/>
        </g>
        <g transform="matrix(67.083,0,0,67.083,1339.54,996.631)">
            <path d="M0.3,-0.197L0.16,-0.229C0.12,-0.238 0.092,-0.253 0.075,-0.274C0.058,-0.295 0.05,-0.325 0.05,-0.365C0.05,-0.419 0.064,-0.455 0.093,-0.473C0.121,-0.492 0.17,-0.5 0.24,-0.499C0.318,-0.498 0.386,-0.493 0.445,-0.484L0.438,-0.422C0.337,-0.425 0.275,-0.427 0.253,-0.427C0.204,-0.428 0.171,-0.425 0.156,-0.418C0.141,-0.411 0.133,-0.394 0.133,-0.365C0.133,-0.342 0.138,-0.326 0.149,-0.317C0.159,-0.308 0.177,-0.301 0.204,-0.295L0.346,-0.263C0.386,-0.253 0.415,-0.238 0.433,-0.219C0.45,-0.199 0.459,-0.169 0.459,-0.129C0.459,-0.072 0.443,-0.035 0.412,-0.017C0.381,0.002 0.327,0.011 0.251,0.011C0.183,0.011 0.119,0.006 0.06,-0.003L0.066,-0.065C0.123,-0.062 0.179,-0.06 0.234,-0.061C0.291,-0.061 0.329,-0.065 0.348,-0.074C0.367,-0.083 0.377,-0.101 0.377,-0.129C0.377,-0.151 0.371,-0.166 0.36,-0.174C0.348,-0.183 0.328,-0.19 0.3,-0.197Z" style="fill:rgb(166,199,20);fill-rule:nonzero;"/>
        </g>
        <g transform="matrix(67.083,0,0,67.083,1373.61,996.631)">
            <path d="M0.104,-0.694L0.144,-0.694C0.161,-0.694 0.17,-0.685 0.17,-0.668L0.17,-0.611C0.17,-0.594 0.161,-0.585 0.144,-0.585L0.104,-0.585C0.087,-0.585 0.078,-0.594 0.078,-0.611L0.078,-0.668C0.078,-0.685 0.087,-0.694 0.104,-0.694ZM0.166,-0L0.082,-0L0.082,-0.487L0.166,-0.487L0.166,-0Z" style="fill:rgb(166,199,20);fill-rule:nonzero;"/>
        </g>
        <g transform="matrix(67.083,0,0,67.083,1390.25,996.631)">
            <path d="M0.371,-0.202L0.144,-0.202C0.149,-0.146 0.162,-0.108 0.185,-0.089C0.208,-0.07 0.245,-0.06 0.298,-0.06C0.353,-0.06 0.41,-0.064 0.467,-0.072L0.476,-0.015C0.433,0.003 0.37,0.012 0.287,0.012C0.203,0.012 0.143,-0.008 0.108,-0.047C0.072,-0.086 0.054,-0.152 0.054,-0.245C0.054,-0.339 0.071,-0.405 0.106,-0.443C0.141,-0.48 0.198,-0.499 0.278,-0.499C0.351,-0.499 0.404,-0.486 0.437,-0.46C0.47,-0.433 0.487,-0.393 0.487,-0.34C0.488,-0.248 0.45,-0.202 0.371,-0.202ZM0.143,-0.268L0.349,-0.268C0.384,-0.268 0.402,-0.292 0.402,-0.34C0.401,-0.371 0.392,-0.394 0.374,-0.407C0.356,-0.42 0.325,-0.427 0.282,-0.427C0.231,-0.427 0.195,-0.416 0.175,-0.394C0.155,-0.371 0.144,-0.329 0.143,-0.268Z" style="fill:rgb(166,199,20);fill-rule:nonzero;"/>
        </g>
        <g transform="matrix(67.083,0,0,67.083,1426.27,996.631)">
            <path d="M0.383,-0.499L0.373,-0.419L0.345,-0.419C0.32,-0.419 0.295,-0.414 0.269,-0.405C0.242,-0.395 0.207,-0.379 0.163,-0.357L0.163,-0L0.078,-0L0.078,-0.487L0.144,-0.487L0.153,-0.41C0.228,-0.469 0.298,-0.499 0.361,-0.499L0.383,-0.499Z" style="fill:rgb(166,199,20);fill-rule:nonzero;"/>
        </g>
        <g transform="matrix(67.083,0,0,67.083,1453.17,996.631)">
            <path d="M0.2,-0.42L0.2,-0.134C0.2,-0.111 0.205,-0.094 0.215,-0.084C0.225,-0.074 0.242,-0.069 0.266,-0.069L0.34,-0.069L0.35,-0.004C0.319,0.005 0.283,0.009 0.24,0.009C0.199,0.009 0.168,-0.002 0.147,-0.025C0.126,-0.048 0.115,-0.08 0.115,-0.123L0.115,-0.42L0.027,-0.42L0.027,-0.482L0.115,-0.486L0.115,-0.631L0.2,-0.631L0.2,-0.487L0.355,-0.487L0.355,-0.42L0.2,-0.42Z" style="fill:rgb(166,199,20);fill-rule:nonzero;"/>
        </g>
        <g transform="matrix(67.083,0,0,67.083,1478.73,996.631)">
            <path d="M0.371,-0.202L0.144,-0.202C0.149,-0.146 0.162,-0.108 0.185,-0.089C0.208,-0.07 0.245,-0.06 0.298,-0.06C0.353,-0.06 0.41,-0.064 0.467,-0.072L0.476,-0.015C0.433,0.003 0.37,0.012 0.287,0.012C0.203,0.012 0.143,-0.008 0.108,-0.047C0.072,-0.086 0.054,-0.152 0.054,-0.245C0.054,-0.339 0.071,-0.405 0.106,-0.443C0.141,-0.48 0.198,-0.499 0.278,-0.499C0.351,-0.499 0.404,-0.486 0.437,-0.46C0.47,-0.433 0.487,-0.393 0.487,-0.34C0.488,-0.248 0.45,-0.202 0.371,-0.202ZM0.143,-0.268L0.349,-0.268C0.384,-0.268 0.402,-0.292 0.402,-0.34C0.401,-0.371 0.392,-0.394 0.374,-0.407C0.356,-0.42 0.325,-0.427 0.282,-0.427C0.231,-0.427 0.195,-0.416 0.175,-0.394C0.155,-0.371 0.144,-0.329 0.143,-0.268Z" style="fill:rgb(166,199,20);fill-rule:nonzero;"/>
        </g>
        <g transform="matrix(67.083,0,0,67.083,1514.76,996.631)">
            <path d="M0.371,-0.202L0.144,-0.202C0.149,-0.146 0.162,-0.108 0.185,-0.089C0.208,-0.07 0.245,-0.06 0.298,-0.06C0.353,-0.06 0.41,-0.064 0.467,-0.072L0.476,-0.015C0.433,0.003 0.37,0.012 0.287,0.012C0.203,0.012 0.143,-0.008 0.108,-0.047C0.072,-0.086 0.054,-0.152 0.054,-0.245C0.054,-0.339 0.071,-0.405 0.106,-0.443C0.141,-0.48 0.198,-0.499 0.278,-0.499C0.351,-0.499 0.404,-0.486 0.437,-0.46C0.47,-0.433 0.487,-0.393 0.487,-0.34C0.488,-0.248 0.45,-0.202 0.371,-0.202ZM0.143,-0.268L0.349,-0.268C0.384,-0.268 0.402,-0.292 0.402,-0.34C0.401,-0.371 0.392,-0.394 0.374,-0.407C0.356,-0.42 0.325,-0.427 0.282,-0.427C0.231,-0.427 0.195,-0.416 0.175,-0.394C0.155,-0.371 0.144,-0.329 0.143,-0.268Z" style="fill:rgb(166,199,20);fill-rule:nonzero;"/>
        </g>
        <g transform="matrix(67.083,0,0,67.083,1550.78,996.631)">
            <path d="M0.164,-0.7L0.164,-0.134C0.163,-0.113 0.169,-0.097 0.18,-0.086C0.191,-0.075 0.208,-0.069 0.23,-0.069L0.277,-0.069L0.287,-0.004C0.269,0.005 0.239,0.009 0.198,0.009C0.161,0.009 0.132,-0.002 0.111,-0.024C0.09,-0.045 0.079,-0.076 0.079,-0.115L0.079,-0.7L0.164,-0.7Z" style="fill:rgb(166,199,20);fill-rule:nonzero;"/>
        </g>
        <g transform="matrix(67.083,0,0,67.083,1570.17,996.631)">
            <path d="M0.2,-0.42L0.2,-0.134C0.2,-0.111 0.205,-0.094 0.215,-0.084C0.225,-0.074 0.242,-0.069 0.266,-0.069L0.34,-0.069L0.35,-0.004C0.319,0.005 0.283,0.009 0.24,0.009C0.199,0.009 0.168,-0.002 0.147,-0.025C0.126,-0.048 0.115,-0.08 0.115,-0.123L0.115,-0.42L0.027,-0.42L0.027,-0.482L0.115,-0.486L0.115,-0.631L0.2,-0.631L0.2,-0.487L0.355,-0.487L0.355,-0.42L0.2,-0.42Z" style="fill:rgb(166,199,20);fill-rule:nonzero;"/>
        </g>
    </g>
</svg>
